<?xml version="1.0" encoding="UTF-8"?>
<svg id="Camada_1" data-name="Camada 1" xmlns="http://www.w3.org/2000/svg" xmlns:xlink="http://www.w3.org/1999/xlink" viewBox="0 0 512 512">
  <defs>
    <style>
      .cls-1 {
        fill: url(#Gradiente_sem_nome_4);
      }

      .cls-1, .cls-2 {
        stroke-width: 0px;
      }

      .cls-2 {
        fill: #fff;
      }
    </style>
    <linearGradient id="Gradiente_sem_nome_4" data-name="Gradiente sem nome 4" x1="1" y1="256" x2="511" y2="256" gradientUnits="userSpaceOnUse">
      <stop offset="0" stop-color="#37b7f5"/>
      <stop offset=".17" stop-color="#3d91f2"/>
      <stop offset=".35" stop-color="#4274f1"/>
      <stop offset=".52" stop-color="#465fef"/>
      <stop offset=".69" stop-color="#4852ef"/>
      <stop offset=".84" stop-color="#494eef"/>
    </linearGradient>
  </defs>
  <path class="cls-1" d="M256,1h0c140.83,0,255,114.17,255,255h0c0,140.83-114.17,255-255,255h0C115.17,511,1,396.83,1,256h0C1,115.17,115.17,1,256,1Z"/>
  <g id="Camada_1-2" data-name="Camada 1-2">
    <g>
      <path class="cls-2" d="M355.43,219.48c0,6.41-5.2,11.61-11.61,11.61h-64.52c-6.46,0-11.69,5.23-11.69,11.69v54.45c0,6.41-5.2,11.61-11.61,11.61s-11.61-5.2-11.61-11.61v-54.45c0-6.46-5.24-11.69-11.69-11.69h-64.52c-6.41,0-11.61-5.2-11.61-11.61s5.2-11.61,11.61-11.61h24.18c6.41,0,11.61-5.2,11.61-11.61s-5.2-11.61-11.61-11.61h-5.94c-6.41,0-11.61-5.19-11.61-11.61,0-4.11,2.14-7.72,5.36-9.78,1.8-1.15,3.94-1.82,6.25-1.82h65.4c4.08,0,7.66-2.1,9.73-5.28,1.18-1.82,1.88-3.99,1.88-6.33,0-6.41-5.2-11.61-11.61-11.61h-41.31c-6.41,0-11.61-5.2-11.61-11.61s5.2-11.61,11.61-11.61h23.77c6.41,0,11.61-5.2,11.61-11.61s-5.2-11.61-11.61-11.61h-.09c-6.41,0-11.61-5.19-11.61-11.61,0-2.08.55-4.04,1.51-5.73,2-3.51,5.77-5.88,10.1-5.88h43.63c6.41,0,11.61,5.2,11.61,11.61,0,4.17-2.2,7.83-5.5,9.87-1.77,1.1-3.86,1.74-6.11,1.74h-.09c-6.41,0-11.61,5.2-11.61,11.61s5.19,11.61,11.61,11.61h23.77c6.41,0,11.61,5.19,11.61,11.61s-5.2,11.61-11.61,11.61h-6.22c-2.13,0-4.12.58-5.84,1.58-3.45,2.02-5.77,5.75-5.77,10.03,0,6.41,5.2,11.61,11.61,11.61h30.3c6.41,0,11.61,5.2,11.61,11.61,0,3.94-1.97,7.43-4.98,9.53-1.88,1.31-4.17,2.08-6.63,2.08h-89.75c-6.41,0-11.61,5.2-11.61,11.61s5.2,11.61,11.61,11.61h108c6.41,0,11.61,5.19,11.61,11.61h-.01Z"/>
      <g>
        <g>
          <path class="cls-2" d="M109.03,400.93c-.33,0-.59-.26-.59-.59l.33-22.42-.33-22.42c0-.33.26-.59.59-.59h30.01c.9,0,1.62.73,1.62,1.62v4.18c0,.9-.73,1.62-1.62,1.62h-19.39c-.56,0-1.02.45-1.03,1.01l-.21,8.52c-.01.58.45,1.06,1.03,1.06h17.7c.9,0,1.62.73,1.62,1.62v4.18c0,.9-.73,1.62-1.62,1.62h-17.7c-.58,0-1.04.47-1.03,1.06l.22,11.08c.01.56.47,1.01,1.03,1.01h19.92c.9,0,1.62.73,1.62,1.62v4.18c0,.9-.73,1.62-1.62,1.62h-30.54Z"/>
          <path class="cls-2" d="M156.05,400.93c-.33,0-.59-.26-.59-.59l.39-22.42-.25-14.57c-.01-.57-.47-1.01-1.03-1.01h-10.71c-.9,0-1.62-.73-1.62-1.62v-4.18c0-.9.73-1.62,1.62-1.62h33.57c.9,0,1.62.73,1.62,1.62v4.18c0,.9-.73,1.62-1.62,1.62h-10.64c-.57,0-1.03.45-1.03,1.01l-.25,14.57.39,22.42c0,.33-.26.59-.59.59h-9.27.01Z"/>
          <path class="cls-2" d="M200.17,401.99c-12.1,0-20.38-5.06-20.84-15.98,0-.33.26-.59.59-.59h9.27c.33,0,.59.26.66.59.66,5.13,2.96,8.48,10.52,8.48,5.98,0,9.27-1.77,9.27-6.11,0-10.39-29.39-2.17-29.39-20.45,0-8.62,6.71-14.01,18.48-14.01,10.79,0,18.21,4.14,19.59,14.01,0,.33-.2.59-.53.59h-9.34c-.33,0-.59-.26-.66-.59-.53-4.14-3.88-6.44-9.47-6.44-4.73,0-8.15,1.64-8.15,5.46,0,9.8,29.53,1.84,29.53,20.05,0,9.73-7.5,14.99-19.53,14.99h0Z"/>
          <path class="cls-2" d="M256.07,401.92c-14.14,0-22.88-9.8-22.88-23.8s8.94-24.2,22.82-24.2c9.93,0,17.95,4.07,20.58,16.37.07.33-.13.59-.46.59h-8.62c-.33,0-.66-.26-.72-.59-1.31-5.52-4.93-8.68-10.92-8.68-8.02,0-12.36,6.18-12.36,16.44s4.47,16.18,12.3,16.18c6.44,0,9.93-3.48,11.12-9.73.06-.33.39-.59.72-.59h7.53c1.05,0,1.7.84,1.47,1.86-2.75,11.62-10.16,16.15-20.57,16.15h0Z"/>
          <path class="cls-2" d="M308.88,400.98c-19.61,5.46-32.92-7.29-30.08-27.46,1.69-12.05,10.28-19.61,22.9-19.61,14.01,0,23.28,9.27,23.28,24.13,0,11.51-6.16,20.16-16.1,22.93ZM301.77,394.23c8.29,0,12.89-6.11,12.89-16.18s-4.53-16.44-12.96-16.44-12.89,6.18-12.89,16.44,4.67,16.18,12.96,16.18Z"/>
          <path class="cls-2" d="M348.78,390.68l-4.23-6.38c-.19-.29-.52-.46-.86-.46h-4.98c-.58,0-1.04.47-1.03,1.04l.19,15.46c0,.33-.26.59-.59.59h-9.01c-.33,0-.59-.26-.59-.59l.26-22.42-.26-22.42c0-.33.26-.59.59-.59h18.67c11.51,0,18.15,4.86,18.15,14.47,0,6.34-3.28,10.84-9.05,13.01-.61.23-.84.98-.49,1.52l10.72,16.51c.13.26,0,.53-.26.53h-10.46c-.33,0-.72-.2-.92-.53l-5.85-9.73h0ZM347.33,362.21h-8.52c-.57,0-1.03.45-1.03,1.02l-.17,12.27c0,.58.46,1.05,1.03,1.05h8.94c4.21,0,7.83-1.97,7.83-6.97s-2.96-7.36-8.09-7.36h0Z"/>
          <path class="cls-2" d="M386,384.95h-6.78c-.58,0-1.04.47-1.03,1.04l.19,14.34c0,.33-.26.59-.59.59h-9.08c-.33,0-.59-.26-.59-.59l.33-22.42-.33-22.42c0-.33.26-.59.59-.59h17.36c11.12,0,17.49,5,17.49,14.8s-6.57,15.26-17.56,15.26h0ZM386.46,362.21h-7.13c-.57,0-1.03.45-1.03,1.02l-.17,13.39c0,.58.46,1.04,1.03,1.04h7.57c3.88,0,7.17-2.23,7.17-7.76s-2.69-7.69-7.43-7.69Z"/>
          <path class="cls-2" d="M397.35,400.93c-2.24,0-4.05-1.82-4.05-4.05v-1.3c0-2.24,1.82-4.05,4.05-4.05h2.16c2.24,0,4.05,1.82,4.05,4.05v1.3c0,2.24-1.82,4.05-4.05,4.05h-2.16Z"/>
        </g>
        <g>
          <path class="cls-2" d="M118.17,429.96c.28,0,.58,0,.91.01.32,0,.65.02.97.06.32.03.62.07.9.14.27.06.51.16.71.27.43.26.8.62,1.09,1.07s.45,1.01.45,1.68c0,.7-.17,1.31-.5,1.82-.34.51-.82.89-1.45,1.13v.04c.81.17,1.43.54,1.86,1.11.43.57.65,1.25.65,2.07,0,.48-.09.95-.26,1.4-.17.45-.43.86-.77,1.21-.34.35-.75.63-1.25.85-.5.22-1.07.32-1.72.32h-6.37v-13.16h4.77ZM118.65,435.62c1,0,1.71-.17,2.15-.52s.65-.88.65-1.57c0-.47-.07-.83-.22-1.11-.15-.27-.35-.48-.61-.63-.26-.15-.55-.24-.9-.29-.34-.04-.7-.06-1.08-.06h-3.5v4.18h3.51ZM119.53,441.65c.77,0,1.38-.21,1.82-.63s.65-1,.65-1.73c0-.43-.08-.78-.24-1.07-.16-.28-.37-.5-.63-.67s-.57-.28-.91-.35c-.34-.07-.7-.1-1.07-.1h-4v4.55h4.39,0Z"/>
          <path class="cls-2" d="M143.65,442.15c-.9.84-2.18,1.26-3.83,1.26s-3.02-.4-3.97-1.21c-.95-.8-1.43-2.08-1.43-3.84v-8.4h1.75v8.4c0,1.18.31,2.07.94,2.68s1.53.91,2.71.91,1.97-.3,2.55-.91.88-1.5.88-2.68v-8.4h1.75v8.4c0,1.69-.45,2.94-1.34,3.79h0Z"/>
          <path class="cls-2" d="M162.86,431.76c-.58-.42-1.33-.63-2.24-.63-.37,0-.73.04-1.09.11s-.67.2-.95.37-.5.4-.67.69c-.17.29-.25.65-.25,1.08,0,.4.12.73.36.98s.56.46.96.62c.4.16.85.29,1.36.4.5.11,1.01.22,1.54.34.52.12,1.03.27,1.54.44s.96.39,1.36.67.72.64.96,1.07c.24.43.36.97.36,1.62,0,.7-.16,1.3-.47,1.8-.31.5-.72.9-1.21,1.21s-1.04.54-1.65.68-1.21.21-1.82.21c-.74,0-1.44-.09-2.09-.27-.66-.19-1.23-.47-1.73-.84-.5-.37-.89-.85-1.18-1.44-.29-.58-.44-1.28-.44-2.07h1.66c0,.55.11,1.03.32,1.43.22.4.5.73.85.98.35.26.76.45,1.23.57s.95.19,1.44.19c.39,0,.79-.04,1.19-.11.4-.07.76-.2,1.08-.38s.58-.42.77-.73c.2-.3.29-.7.29-1.18,0-.45-.12-.82-.36-1.11-.24-.28-.56-.51-.96-.69s-.85-.32-1.36-.44-1.01-.22-1.54-.34c-.52-.12-1.03-.25-1.54-.4s-.96-.35-1.36-.61c-.4-.25-.72-.58-.96-.98s-.36-.9-.36-1.5c0-.67.14-1.24.4-1.72s.63-.88,1.08-1.2c.45-.31.96-.55,1.53-.7s1.16-.23,1.76-.23c.68,0,1.3.08,1.88.24s1.08.41,1.52.75c.44.34.78.78,1.03,1.3s.39,1.14.42,1.87h-1.66c-.1-.95-.44-1.63-1.02-2.05h.02Z"/>
          <path class="cls-2" d="M178.51,429.96v13.16h-1.75v-13.16h1.75Z"/>
          <path class="cls-2" d="M191.78,429.96l6.93,10.67h.04v-10.67h1.66v13.16h-1.92l-6.87-10.56h-.04v10.56h-1.66v-13.16h1.86Z"/>
          <path class="cls-2" d="M220.8,429.96v1.47h-7.33v4.18h6.84v1.47h-6.84v4.55h7.39v1.47h-9.14v-13.16h9.08,0Z"/>
          <path class="cls-2" d="M238.03,431.76c-.58-.42-1.33-.63-2.24-.63-.37,0-.73.04-1.09.11s-.67.2-.95.37-.5.4-.67.69c-.17.29-.25.65-.25,1.08,0,.4.12.73.36.98s.56.46.96.62c.4.16.85.29,1.36.4.5.11,1.01.22,1.54.34s1.03.27,1.54.44.96.39,1.36.67.72.64.96,1.07c.24.43.36.97.36,1.62,0,.7-.16,1.3-.47,1.8-.31.5-.72.9-1.21,1.21-.49.31-1.04.54-1.65.68s-1.21.21-1.82.21c-.74,0-1.44-.09-2.09-.27-.66-.19-1.23-.47-1.73-.84s-.89-.85-1.18-1.44c-.29-.58-.44-1.28-.44-2.07h1.66c0,.55.11,1.03.32,1.43.22.4.5.73.85.98.35.26.76.45,1.23.57s.95.19,1.44.19c.39,0,.79-.04,1.19-.11s.76-.2,1.08-.38.58-.42.77-.73c.2-.3.29-.7.29-1.18,0-.45-.12-.82-.36-1.11-.24-.28-.56-.51-.96-.69s-.85-.32-1.36-.44-1.01-.22-1.54-.34-1.03-.25-1.54-.4-.96-.35-1.36-.61c-.4-.25-.72-.58-.96-.98-.24-.4-.36-.9-.36-1.5,0-.67.14-1.24.4-1.72s.63-.88,1.08-1.2c.45-.31.96-.55,1.53-.7.57-.16,1.16-.23,1.76-.23.68,0,1.3.08,1.88.24.58.16,1.08.41,1.52.75.44.34.78.78,1.03,1.3s.39,1.14.42,1.87h-1.66c-.1-.95-.44-1.63-1.02-2.05h.02Z"/>
          <path class="cls-2" d="M258.45,431.76c-.58-.42-1.33-.63-2.24-.63-.37,0-.73.04-1.09.11s-.67.2-.95.37-.5.4-.67.69c-.17.29-.25.65-.25,1.08,0,.4.12.73.36.98s.56.46.96.62c.4.16.85.29,1.36.4.5.11,1.01.22,1.54.34s1.03.27,1.54.44.96.39,1.36.67.72.64.96,1.07c.24.43.36.97.36,1.62,0,.7-.16,1.3-.47,1.8-.31.5-.72.9-1.21,1.21-.49.31-1.04.54-1.65.68s-1.21.21-1.82.21c-.74,0-1.44-.09-2.09-.27-.66-.19-1.23-.47-1.73-.84s-.89-.85-1.18-1.44c-.29-.58-.44-1.28-.44-2.07h1.66c0,.55.11,1.03.32,1.43.22.4.5.73.85.98.35.26.76.45,1.23.57s.95.19,1.44.19c.39,0,.79-.04,1.19-.11s.76-.2,1.08-.38.58-.42.77-.73c.2-.3.29-.7.29-1.18,0-.45-.12-.82-.36-1.11-.24-.28-.56-.51-.96-.69s-.85-.32-1.36-.44-1.01-.22-1.54-.34-1.03-.25-1.54-.4-.96-.35-1.36-.61c-.4-.25-.72-.58-.96-.98-.24-.4-.36-.9-.36-1.5,0-.67.14-1.24.4-1.72s.63-.88,1.08-1.2c.45-.31.96-.55,1.53-.7.57-.16,1.16-.23,1.76-.23.68,0,1.3.08,1.88.24.58.16,1.08.41,1.52.75.44.34.78.78,1.03,1.3s.39,1.14.42,1.87h-1.66c-.1-.95-.44-1.63-1.02-2.05h.02Z"/>
          <path class="cls-2" d="M293.83,431.82c-.67-.47-1.46-.7-2.39-.7-.78,0-1.46.15-2.02.44-.56.29-1.02.69-1.38,1.19s-.63,1.06-.8,1.7c-.17.64-.26,1.3-.26,1.99,0,.75.09,1.46.26,2.13.17.67.44,1.25.8,1.75.36.5.83.9,1.39,1.19s1.24.44,2.03.44c.58,0,1.09-.09,1.54-.29s.83-.45,1.16-.79c.32-.34.58-.74.77-1.21.19-.47.29-.97.33-1.51h1.75c-.17,1.66-.74,2.95-1.71,3.87s-2.3,1.38-3.98,1.38c-1.02,0-1.91-.17-2.67-.52-.77-.35-1.39-.83-1.9-1.45s-.88-1.34-1.13-2.18c-.25-.83-.38-1.73-.38-2.69s.14-1.86.4-2.7c.27-.84.67-1.57,1.19-2.2.52-.63,1.18-1.12,1.95-1.48s1.67-.54,2.68-.54c.69,0,1.34.09,1.95.27.62.19,1.16.45,1.64.81.48.35.88.8,1.2,1.34.32.53.53,1.15.63,1.85h-1.75c-.2-.93-.63-1.64-1.3-2.1h-.01Z"/>
          <path class="cls-2" d="M316.74,429.96v1.47h-7.33v4.18h6.84v1.47h-6.84v4.55h7.39v1.47h-9.14v-13.16h9.08Z"/>
          <path class="cls-2" d="M329.23,429.96l6.93,10.67h.04v-10.67h1.66v13.16h-1.92l-6.87-10.56h-.04v10.56h-1.66v-13.16h1.86,0Z"/>
          <path class="cls-2" d="M347.76,431.44v-1.47h10.52v1.47h-4.39v11.68h-1.75v-11.68h-4.39Z"/>
          <path class="cls-2" d="M377.3,429.96v1.47h-7.33v4.18h6.84v1.47h-6.84v4.55h7.39v1.47h-9.14v-13.16h9.08Z"/>
          <path class="cls-2" d="M394.14,429.96c1.25,0,2.23.3,2.94.92.71.62,1.06,1.46,1.06,2.53,0,.8-.18,1.5-.54,2.1-.36.6-.95,1.01-1.74,1.23v.04c.38.07.69.2.93.37.24.17.43.38.57.62s.25.5.31.8c.07.29.12.6.16.92.02.32.04.65.06.98s.04.66.09.98.12.62.21.91c.09.29.23.54.42.77h-1.95c-.12-.14-.21-.32-.25-.55s-.07-.49-.08-.78c-.01-.29-.02-.6-.04-.93s-.05-.66-.11-.98c-.05-.32-.11-.62-.19-.91-.07-.29-.19-.54-.35-.75-.16-.22-.37-.39-.63-.52-.26-.13-.6-.19-1.03-.19h-4.27v5.62h-1.75v-13.16h6.19,0ZM394.51,435.94c.37-.06.69-.18.97-.36.27-.18.5-.42.67-.72s.25-.69.25-1.17c0-.67-.19-1.21-.55-1.62-.37-.42-.96-.63-1.79-.63h-4.35v4.59h3.65c.4,0,.79-.03,1.16-.09h-.01Z"/>
        </g>
      </g>
    </g>
  </g>
</svg>