<?xml version="1.0" encoding="UTF-8"?>
<svg id="Camada_1" data-name="Camada 1" xmlns="http://www.w3.org/2000/svg" xmlns:xlink="http://www.w3.org/1999/xlink" viewBox="0 0 512 512">
  <defs>
    <style>
      .cls-1 {
        fill: #ddffe2;
      }

      .cls-1, .cls-2 {
        stroke-width: 0px;
      }

      .cls-2 {
        fill: url(#Gradiente_sem_nome_10);
      }
    </style>
    <linearGradient id="Gradiente_sem_nome_10" data-name="Gradiente sem nome 10" x1="93.79" y1="327.29" x2="448.17" y2="171.54" gradientUnits="userSpaceOnUse">
      <stop offset="0" stop-color="#2d762e"/>
      <stop offset=".99" stop-color="#8ee75d"/>
    </linearGradient>
  </defs>
  <rect class="cls-2" x="1" y="1" width="510" height="510" rx="255" ry="255"/>
  <g>
    <polygon class="cls-1" points="352.45 163.54 370.79 197.07 404.32 215.41 370.79 233.75 352.45 267.28 334.11 233.75 300.58 215.41 334.11 197.07 352.45 163.54"/>
    <polygon class="cls-1" points="391.3 128.5 398.06 140.85 410.41 147.61 398.06 154.36 391.3 166.72 384.55 154.36 372.19 147.61 384.55 140.85 391.3 128.5"/>
    <path class="cls-1" d="M243.3,397.14c-19.96,0-39.87-4.27-58.58-12.78-34.46-15.67-60.75-43.81-74.04-79.26-13.29-35.44-11.98-73.94,3.69-108.39,15.67-34.46,43.81-60.75,79.26-74.04,35.44-13.29,73.94-11.97,108.39,3.69l-21.44,47.16c-21.86-9.94-46.28-10.77-68.77-2.34-22.49,8.43-40.34,25.11-50.28,46.97-9.94,21.86-10.77,46.28-2.34,68.77,8.43,22.49,25.11,40.34,46.97,50.28,21.86,9.94,46.28,10.77,68.77,2.34,22.49-8.43,40.34-25.11,50.28-46.97l47.16,21.44c-15.67,34.46-43.81,60.75-79.26,74.04-16.19,6.07-33.02,9.09-49.81,9.09Z"/>
  </g>
</svg>