<?xml version="1.0" encoding="UTF-8"?>
<svg id="Camada_1" data-name="Camada 1" xmlns="http://www.w3.org/2000/svg" viewBox="0 0 512 512">
  <defs>
    <style>
      .cls-1 {
        fill: #1119fe;
        stroke: #000;
        stroke-width: .03px;
      }

      .cls-2 {
        fill: #fff;
        stroke-width: 0px;
      }
    </style>
  </defs>
  <path class="cls-1" d="M256,1h0c140.83,0,255,114.17,255,255h0c0,140.83-114.17,255-255,255h0C115.17,511,1,396.83,1,256h0C1,115.17,115.17,1,256,1Z"/>
  <g>
    <path class="cls-2" d="M434.75,297.33c7.76,0,14.18,2.61,19.27,7.82,5.09,5.22,7.63,11.77,7.63,19.66s-2.54,14.44-7.63,19.66c-5.08,5.22-11.51,7.83-19.27,7.83-4.83,0-9.23-1.07-13.21-3.23-3.91-2.15-7.07-5.12-9.49-8.9v29.74h-4.79v-71.5h3.52l.98,11.54c2.41-3.91,5.61-6.98,9.59-9.19,4.04-2.28,8.51-3.42,13.4-3.42ZM434.35,347.61c6.52,0,11.9-2.15,16.14-6.46,4.24-4.3,6.36-9.75,6.36-16.33s-2.12-12.03-6.36-16.33c-4.24-4.3-9.62-6.46-16.14-6.46s-11.74,2.18-16.04,6.55c-4.31,4.3-6.46,9.71-6.46,16.24s2.15,11.96,6.46,16.33c4.3,4.3,9.65,6.46,16.04,6.46Z"/>
    <path class="cls-2" d="M367.17,352.31c-6.85,0-12.32-2.09-16.43-6.26-4.11-4.24-6.16-9.91-6.16-17.02v-30.62h4.79v29.93c0,5.93,1.6,10.63,4.79,14.08,3.2,3.46,7.53,5.18,13.01,5.18s9.91-1.73,13.11-5.18c3.2-3.46,4.79-8.15,4.79-14.08v-29.93h4.79v30.62c0,7.11-2.05,12.78-6.16,17.02-4.11,4.17-9.62,6.26-16.53,6.26Z"/>
    <path class="cls-2" d="M327.87,346.73h5.77v4.5h-6.36c-5.15,0-9.23-1.5-12.23-4.5-2.93-3-4.4-7.11-4.4-12.32v-31.59h-8.8v-1.08l12.71-12.62h.88v9.29h17.8v4.4h-17.8v31.49c0,3.98,1.07,7.04,3.23,9.19,2.15,2.15,5.22,3.23,9.19,3.23Z"/>
    <path class="cls-2" d="M273.15,352.7c-4.37,0-8.25-.78-11.64-2.35-3.32-1.57-5.93-3.78-7.82-6.65-1.83-2.87-2.74-6.16-2.74-9.88h13.89c.06,1.56.46,2.9,1.17,4.01.78,1.04,1.83,1.82,3.13,2.35,1.3.46,2.8.69,4.5.69,1.37,0,2.61-.2,3.72-.59,1.11-.39,2.02-.98,2.74-1.76.72-.85,1.08-1.83,1.08-2.93,0-1.63-.85-2.84-2.54-3.62-1.7-.78-4.24-1.47-7.63-2.05-2.15-.33-3.95-.65-5.38-.98-1.37-.33-3.03-.88-4.99-1.66-1.89-.85-3.42-1.79-4.6-2.84-1.11-1.04-2.09-2.48-2.93-4.31-.85-1.82-1.27-3.95-1.27-6.36,0-4.96,1.96-9,5.87-12.13,3.91-3.13,9.03-4.7,15.36-4.7s11.51,1.63,15.36,4.89c3.91,3.2,5.87,7.43,5.87,12.72h-13.6c0-4.17-2.64-6.26-7.92-6.26-2.22,0-3.95.46-5.18,1.37-1.24.91-1.86,2.15-1.86,3.72,0,.65.16,1.27.49,1.86.39.52.82.94,1.27,1.27.52.33,1.3.65,2.35.98,1.04.26,1.92.46,2.64.59.72.13,1.79.33,3.23.59,1.24.26,2.12.46,2.64.59.52.06,1.4.23,2.64.49,1.24.26,2.15.52,2.74.78.65.2,1.5.49,2.54.88,1.11.39,1.92.81,2.45,1.27.59.39,1.27.88,2.05,1.47.85.59,1.5,1.24,1.96,1.96.46.72.91,1.5,1.37,2.35.46.85.75,1.82.88,2.93.2,1.11.29,2.28.29,3.52,0,5.41-2.02,9.75-6.07,13.01-4.04,3.2-9.39,4.79-16.04,4.79Z"/>
    <path class="cls-2" d="M241.92,298.12h4.7v13.5h-6.16c-4.04,0-6.94.95-8.71,2.84-1.7,1.89-2.54,4.99-2.54,9.29v27.48h-14.28v-52.82h9.19l2.54,6.46c3.59-4.5,8.67-6.75,15.26-6.75Z"/>
    <path class="cls-2" d="M190.53,298.31h10.66v52.82h-11.25l-1.17-4.69c-4.83,4.17-10.53,6.26-17.12,6.26-7.96,0-14.57-2.64-19.86-7.92-5.22-5.35-7.83-12.03-7.83-20.05s2.61-14.57,7.83-19.85c5.28-5.28,11.9-7.92,19.86-7.92,6.72,0,12.49,2.15,17.31,6.46l1.56-5.09ZM162.45,335.09c2.74,2.74,6.16,4.11,10.27,4.11s7.63-1.37,10.37-4.11c2.74-2.74,4.11-6.19,4.11-10.37s-1.37-7.63-4.11-10.37c-2.74-2.74-6.16-4.11-10.27-4.11-2.74,0-5.22.65-7.43,1.96-2.15,1.24-3.85,2.97-5.09,5.18-1.24,2.15-1.86,4.6-1.86,7.33,0,4.17,1.34,7.63,4.01,10.37Z"/>
    <path class="cls-2" d="M130.47,338.51h6.46v12.72h-10.17c-5.8,0-10.37-1.66-13.69-4.99-3.33-3.39-4.99-8.02-4.99-13.89v-22.5h-9.59v-3.03l20.83-22.2h2.74v13.79h14.57v11.44h-14.28v20.64c0,2.54.68,4.53,2.05,5.97,1.43,1.37,3.46,2.05,6.06,2.05ZM75.1,318.66c1.76.33,3.03.59,3.81.78.85.13,2.09.42,3.72.88,1.7.46,2.97.91,3.81,1.37.91.46,1.96,1.11,3.13,1.96,1.24.85,2.15,1.76,2.74,2.74.65.98,1.21,2.22,1.66,3.72.46,1.43.68,3.03.68,4.79,0,5.41-2.02,9.75-6.06,13.01-4.04,3.2-9.39,4.79-16.04,4.79s-12-1.73-16.04-5.18c-4.04-3.46-6.1-8.02-6.16-13.69h13.89c.07,2.28.88,4.04,2.45,5.28,1.63,1.17,3.75,1.76,6.36,1.76,2.15,0,3.95-.46,5.38-1.37,1.43-.91,2.15-2.22,2.15-3.91,0-.85-.26-1.6-.78-2.25-.46-.65-1.21-1.17-2.25-1.56-1.04-.46-2.09-.81-3.13-1.08-1.04-.26-2.38-.52-4.01-.78-2.15-.33-3.95-.65-5.38-.98-1.37-.33-3.03-.88-4.99-1.66-1.89-.85-3.42-1.79-4.6-2.84-1.11-1.04-2.09-2.48-2.93-4.3-.85-1.83-1.27-3.95-1.27-6.36,0-4.96,1.96-9,5.87-12.13,3.91-3.13,9.03-4.7,15.36-4.7s11.51,1.63,15.36,4.89c3.91,3.2,5.87,7.43,5.87,12.71h-13.6c0-4.17-2.64-6.26-7.92-6.26-2.22,0-3.95.46-5.18,1.37-1.24.91-1.86,2.15-1.86,3.72,0,.65.16,1.27.49,1.86.39.52.82.95,1.27,1.27.52.33,1.3.65,2.35.98,1.04.26,1.92.46,2.64.59.72.13,1.79.33,3.23.59Z"/>
    <path class="cls-2" d="M297.85,142.37l-20.03,18.54,36.76,38.53-36.76,35.86,20.03,20.93,56.46-56.79-56.46-57.07Z"/>
    <circle class="cls-2" cx="271.69" cy="198.21" r="15.22"/>
    <path class="cls-2" d="M200.01,255.89c-8.89,0-16.79-1.59-23.69-4.78-6.77-3.18-12.07-7.7-15.92-13.53-3.72-5.84-5.57-12.54-5.57-20.1h28.26c.13,3.18.93,5.9,2.39,8.16,1.59,2.12,3.72,3.72,6.37,4.78,2.65.93,5.71,1.39,9.16,1.39,2.79,0,5.31-.4,7.56-1.19,2.26-.8,4.11-1.99,5.57-3.58,1.46-1.73,2.19-3.72,2.19-5.97,0-3.32-1.72-5.77-5.17-7.36-3.45-1.59-8.62-2.99-15.52-4.18-4.38-.66-8.03-1.33-10.95-1.99-2.79-.66-6.17-1.79-10.15-3.38-3.85-1.72-6.97-3.65-9.35-5.77-2.26-2.12-4.25-5.04-5.97-8.76-1.72-3.72-2.59-8.03-2.59-12.94,0-10.08,3.98-18.31,11.94-24.68,7.96-6.37,18.38-9.55,31.25-9.55s23.42,3.32,31.25,9.95c7.96,6.5,11.94,15.13,11.94,25.87h-27.67c0-8.49-5.37-12.74-16.12-12.74-4.51,0-8.03.93-10.55,2.79-2.52,1.86-3.78,4.38-3.78,7.56,0,1.33.33,2.59,1,3.78.8,1.06,1.66,1.92,2.59,2.59,1.06.66,2.65,1.33,4.78,1.99,2.12.53,3.91.93,5.37,1.19,1.46.27,3.65.66,6.57,1.19,2.52.53,4.31.93,5.37,1.19,1.06.13,2.85.46,5.37,1,2.52.53,4.38,1.06,5.57,1.59,1.33.4,3.05,1,5.18,1.79,2.26.8,3.91,1.66,4.98,2.59,1.19.8,2.59,1.79,4.18,2.99,1.72,1.19,3.05,2.52,3.98,3.98.93,1.46,1.86,3.05,2.79,4.78.93,1.73,1.53,3.72,1.79,5.97.4,2.26.6,4.64.6,7.17,0,11.01-4.11,19.84-12.34,26.47-8.23,6.5-19.11,9.75-32.64,9.75Z"/>
  </g>
</svg>